<?xml version="1.0" encoding="utf-8"?>
<!-- Generator: Adobe Illustrator 19.0.1, SVG Export Plug-In . SVG Version: 6.00 Build 0)  -->
<svg version="1.1" id="Layer_1" xmlns="http://www.w3.org/2000/svg" xmlns:xlink="http://www.w3.org/1999/xlink" x="0px" y="0px"
	 width="256px" height="29px" viewBox="0 0 256 29" style="enable-background:new 0 0 256 29;" xml:space="preserve">
<style type="text/css">
	.st0{fill:#FFFFFF;}
</style>
<g>
	<g>
		<g>
			<g>
				<g>
					<path class="st0" d="M2.8,20.9v-6.9H7c1,0,2.2,0,3.1,0.7c0.9,0.7,1.3,1.8,1.3,2.9c0,1-0.4,2-1.2,2.5c-0.8,0.7-1.9,0.8-2.9,0.8
						L2.8,20.9L2.8,20.9z M2.8,12.2V6.1h4.1c0.9,0,1.7,0,2.5,0.5c0.9,0.6,1.4,1.4,1.4,2.5c0,0.9-0.4,1.9-1.2,2.5
						c-0.9,0.7-2.2,0.7-3.3,0.7H2.8z M7.4,22.6c1.7,0,3.1-0.1,4.5-1.2c1.2-0.9,1.8-2.3,1.8-3.9c0-2.4-1.5-4.2-3.8-4.6v0
						c2-0.5,3.2-2,3.2-4.1c0-1.5-0.7-2.8-1.9-3.6C9.9,4.4,8.8,4.3,7.4,4.3H0.7v18.3H7.4z"/>
					<path class="st0" d="M18,15.8c0-1.1,0.1-2.4,0.7-3.4c0.6-1.2,1.8-2,3.1-2c1.2,0,2.3,0.6,3,1.6c0.7,1.1,0.9,2.5,0.9,3.8
						c0,1.2-0.1,2.4-0.7,3.5c-0.7,1.2-1.8,2-3.1,2c-1.2,0-2.4-0.7-3-1.7C18.2,18.5,18,17,18,15.8z M15.7,15.8c0,3.6,1.8,7.2,5.9,7.2
						c4.1,0,6.3-3.3,6.3-7.1c0-3.6-2-7.1-6-7.1C17.8,8.8,15.7,12,15.7,15.8z"/>
					<path class="st0" d="M32.2,15.8c0-1.1,0.1-2.4,0.7-3.4c0.6-1.2,1.8-2,3.1-2c1.2,0,2.3,0.6,3,1.6c0.7,1.1,0.9,2.5,0.9,3.8
						c0,1.2-0.1,2.4-0.7,3.5c-0.7,1.2-1.7,2-3.1,2c-1.2,0-2.4-0.7-3-1.7C32.3,18.5,32.2,17,32.2,15.8z M29.9,15.8
						c0,3.6,1.8,7.2,5.9,7.2c4.1,0,6.3-3.3,6.3-7.1c0-3.6-2-7.1-6-7.1C32,8.8,29.9,12,29.9,15.8z"/>
					<path class="st0" d="M53.3,10.2L45.9,21h7.4v1.6h-10V21l7.2-10.3h-6.7V9.1h9.4V10.2z"/>
					<path class="st0" d="M66.8,28.7h-1.7V0.4h1.7V28.7z"/>
					<path class="st0" d="M87.2,15.6h-5.6l2.8-8.8L87.2,15.6z M85.8,4.3h-2.5l-5.9,18.3h1.9l1.6-5.4h6.8l1.8,5.4h2.2L85.8,4.3z"/>
					<path class="st0" d="M107.3,14.5c0.1-2.1,1.6-4.1,3.9-4.1c2.4,0,3.8,1.9,3.7,4.1H107.3z M115,18.6c-0.6,1.6-1.9,2.6-3.7,2.6
						c-1.4,0-2.9-0.8-3.6-2.1c-0.5-1-0.5-2-0.5-3.1h9.9c0.1-3.8-1.7-7.3-5.9-7.3c-4.1,0-6.3,3.4-6.3,7.1c0,3.8,2.1,7.1,6.2,7.1
						c2.6,0,5-1.5,5.8-4L115,18.6z"/>
					<path class="st0" d="M122.1,11.4L122.1,11.4c0.8-1.6,2.4-2.6,4.3-2.6c1.6,0,3,0.7,3.8,2.1c0.7,1.2,0.7,3,0.7,4.3v7.5h-2.1v-8.4
						c0-0.8,0-1.8-0.4-2.5c-0.4-0.8-1.4-1.2-2.3-1.2c-1.1,0-2.1,0.5-2.8,1.4c-0.9,1-1,2.3-1,3.7v7.1h-2.1V9.1h2L122.1,11.4
						L122.1,11.4z"/>
					<path class="st0" d="M247,11.4L247,11.4c0.8-1.6,2.4-2.6,4.3-2.6c1.6,0,3,0.7,3.8,2.1c0.7,1.2,0.7,3,0.7,4.3v7.5h-2.1v-8.4
						c0-0.8,0-1.8-0.4-2.5c-0.4-0.8-1.4-1.2-2.3-1.2c-1.1,0-2.1,0.5-2.8,1.4c-0.9,1-1,2.3-1,3.7v7.1H245V9.1h2L247,11.4L247,11.4z"
						/>
					<path class="st0" d="M144.5,28.7h-1.7V0.4h1.7V28.7z"/>
					<path class="st0" d="M168.2,22.6v-8.8h-8.5v8.8h-2.2V4.3h2.2v7.7h8.5V4.3h2.2v18.3H168.2z"/>
					<path class="st0" d="M182.5,16.7c0,2.4-1.7,4.6-4.2,4.6c-1.7,0-2.9-0.7-2.9-2.4c0-2.8,2.9-3.1,5.4-3.1h1.7L182.5,16.7
						L182.5,16.7z M180.8,14.3c-1.7,0-3.6,0.1-5.1,0.8c-1.5,0.7-2.5,2.1-2.5,3.8c0,2.7,2.1,4.1,4.6,4.1c2.1,0,3.7-0.8,4.6-2.8
						l0.3,2.5h2c-0.3-0.9-0.3-1.9-0.3-2.9v-5.3c0-1.6,0-3.3-1.1-4.4c-1-1.2-2.6-1.3-4.1-1.3c-2.4,0-5.4,0.9-5.7,3.7l1.9,0.3
						c0.4-1.8,2-2.4,3.6-2.4c2.4,0,3.4,0.9,3.4,3.3v0.6C182.5,14.3,180.8,14.3,180.8,14.3z"/>
					<path class="st0" d="M190,9.1v2.4h0c0.7-1.5,2.2-2.7,4.1-2.7c1.9,0,3.4,1.4,3.8,3c0.7-1.7,2.4-3,4.4-3c1.4,0,2.7,0.8,3.4,2
						c0.7,1.1,0.6,2.6,0.6,3.9v8.1h-2v-8.1c0-0.9,0.1-1.9-0.4-2.7c-0.4-0.9-1.3-1.4-2.3-1.4c-1,0-2,0.7-2.6,1.5
						c-0.8,1.1-0.8,2.1-0.8,3.4v7.3h-2.1v-8.6c0-0.8-0.1-1.6-0.4-2.3c-0.5-0.8-1.3-1.3-2.3-1.3s-1.9,0.6-2.5,1.3
						c-0.7,0.9-0.8,2-0.8,3.1v7.8h-2.1V9.1H190z"/>
					<path class="st0" d="M212.2,22.6h-2.1V9.1h2.1V22.6z M212.3,6.7H210V4.3h2.3V6.7z"/>
					<path class="st0" d="M216.5,22.6V4.3h2v18.3H216.5z"/>
					<path class="st0" d="M93.9,22.6V4.3h2v18.3H93.9z"/>
					<path class="st0" d="M100.1,22.6V4.3h2v18.3H100.1z"/>
					<path class="st0" d="M229.1,22.8l-2,0.2c-3,0-3.9-1.7-3.9-4.4v-7.9h-2.4V9h2.4V5.6l2.1-0.2V9h3v1.7h-3v8.2
						c0,1.6,0.5,2.4,2.2,2.4l1.6-0.1V22.8z"/>
					<path class="st0" d="M232.4,15.8c0-1.1,0.2-2.4,0.7-3.4c0.6-1.2,1.8-2,3.1-2c1.2,0,2.3,0.6,3,1.6c0.7,1.1,0.9,2.5,0.9,3.8
						c0,1.2-0.1,2.4-0.7,3.5c-0.7,1.2-1.7,2-3.1,2c-1.3,0-2.4-0.7-3-1.7C232.6,18.5,232.4,17,232.4,15.8z M230.1,15.8
						c0,3.6,1.8,7.2,5.9,7.2c4.1,0,6.3-3.3,6.3-7.1c0-3.6-2-7.1-6-7.1C232.2,8.8,230.1,12,230.1,15.8z"/>
				</g>
			</g>
		</g>
	</g>
</g>
</svg>
