<?xml version="1.0" encoding="utf-8"?>
<!-- Generator: Adobe Illustrator 19.0.1, SVG Export Plug-In . SVG Version: 6.00 Build 0)  -->
<svg version="1.1" id="Layer_1" xmlns="http://www.w3.org/2000/svg" xmlns:xlink="http://www.w3.org/1999/xlink" x="0px" y="0px"
	 width="233px" height="32px" viewBox="0 0 233 32" style="enable-background:new 0 0 233 32;" xml:space="preserve">
<style type="text/css">
	.st0{fill:#FFFFFF;}
</style>
<g>
	<g>
		<g>
			<g>
				<g>
					<path class="st0" d="M4.1,21.5v-6.2h3.7c0.9,0,1.9,0,2.7,0.6c0.8,0.6,1.2,1.6,1.2,2.6c0,0.9-0.3,1.7-1,2.3
						C10,21.3,9,21.4,8.1,21.4L4.1,21.5L4.1,21.5z M4.1,13.8V8.3h3.7c0.8,0,1.5,0,2.3,0.4c0.8,0.5,1.2,1.3,1.2,2.3
						c0,0.8-0.4,1.7-1,2.2c-0.8,0.6-2,0.6-3,0.6H4.1z M8.1,23.1c1.5,0,2.8-0.1,4-1.1c1.1-0.8,1.6-2.1,1.6-3.5c0-2.1-1.4-3.7-3.4-4.1
						v0c1.8-0.4,2.9-1.8,2.9-3.7c0-1.3-0.6-2.5-1.7-3.2c-1.1-0.7-2.1-0.8-3.4-0.8h-6v16.3H8.1z"/>
					<path class="st0" d="M17.6,16.9c0-1,0.1-2.2,0.6-3c0.5-1.1,1.6-1.7,2.8-1.7c1.1,0,2.1,0.5,2.6,1.5c0.6,1,0.8,2.2,0.8,3.4
						c0,1.1-0.1,2.2-0.6,3.1c-0.6,1.1-1.6,1.7-2.8,1.7c-1.1,0-2.1-0.6-2.7-1.5C17.7,19.3,17.6,18,17.6,16.9z M15.5,16.9
						c0,3.2,1.6,6.4,5.2,6.4c3.7,0,5.6-3,5.6-6.4c0-3.2-1.8-6.3-5.3-6.3C17.4,10.7,15.5,13.6,15.5,16.9z"/>
					<path class="st0" d="M30.2,16.9c0-1,0.1-2.2,0.6-3c0.5-1.1,1.6-1.7,2.8-1.7c1.1,0,2.1,0.5,2.6,1.5c0.6,1,0.8,2.2,0.8,3.4
						c0,1.1-0.1,2.2-0.6,3.1c-0.6,1.1-1.5,1.7-2.8,1.7c-1.1,0-2.1-0.6-2.7-1.5C30.4,19.3,30.2,18,30.2,16.9z M28.2,16.9
						c0,3.2,1.6,6.4,5.2,6.4c3.7,0,5.6-3,5.6-6.4c0-3.2-1.8-6.3-5.3-6.3C30.1,10.7,28.2,13.6,28.2,16.9z"/>
					<path class="st0" d="M49.1,12l-6.6,9.6h6.6v1.5h-8.9v-1.5l6.4-9.2h-5.9V11h8.4V12z"/>
					<path class="st0" d="M61.1,28.4h-1.5V3.3h1.5V28.4z"/>
					<path class="st0" d="M79.3,16.7h-5l2.5-7.8L79.3,16.7z M78,6.7h-2.2l-5.3,16.3h1.7l1.5-4.8h6l1.6,4.8h1.9L78,6.7z"/>
					<path class="st0" d="M97.2,15.8c0.1-1.9,1.5-3.7,3.5-3.7c2.2,0,3.4,1.7,3.3,3.7H97.2z M104.1,19.4c-0.5,1.4-1.7,2.3-3.3,2.3
						c-1.3,0-2.6-0.7-3.2-1.9c-0.5-0.9-0.5-1.8-0.5-2.7h8.9c0.1-3.4-1.5-6.5-5.3-6.5c-3.6,0-5.6,3-5.6,6.4c0,3.4,1.9,6.3,5.5,6.3
						c2.3,0,4.4-1.3,5.1-3.5L104.1,19.4z"/>
					<path class="st0" d="M110.5,13L110.5,13c0.7-1.4,2.2-2.4,3.8-2.4c1.5,0,2.6,0.6,3.4,1.9c0.6,1,0.6,2.6,0.6,3.8v6.7h-1.9v-7.5
						c0-0.7,0-1.6-0.4-2.2c-0.4-0.7-1.3-1.1-2.1-1.1c-1,0-1.8,0.5-2.5,1.2c-0.8,0.9-0.9,2-0.9,3.3v6.3h-1.9V11h1.8L110.5,13
						L110.5,13z"/>
					<path class="st0" d="M221.8,13L221.8,13c0.7-1.4,2.2-2.4,3.8-2.4c1.5,0,2.7,0.6,3.4,1.9c0.6,1,0.6,2.6,0.6,3.8v6.7h-1.9v-7.5
						c0-0.7,0-1.6-0.3-2.2c-0.4-0.7-1.3-1.1-2.1-1.1c-1,0-1.9,0.5-2.5,1.2c-0.8,0.9-0.9,2-0.9,3.3v6.3h-1.9V11h1.8L221.8,13
						L221.8,13z"/>
					<path class="st0" d="M130.5,28.4h-1.5V3.3h1.5V28.4z"/>
					<path class="st0" d="M151.5,23.1v-7.8H144v7.8H142V6.7h1.9v6.9h7.5V6.7h1.9v16.3H151.5z"/>
					<path class="st0" d="M164.3,17.8c0,2.1-1.5,4.1-3.7,4.1c-1.5,0-2.6-0.6-2.6-2.1c0-2.5,2.6-2.7,4.8-2.7h1.5L164.3,17.8
						L164.3,17.8z M162.8,15.6c-1.5,0-3.2,0.1-4.5,0.7c-1.3,0.6-2.2,1.9-2.2,3.4c0,2.4,1.9,3.7,4.1,3.7c1.9,0,3.3-0.7,4.1-2.5
						l0.2,2.3h1.8c-0.2-0.8-0.3-1.7-0.3-2.5v-4.7c0-1.4,0-2.9-1-4c-0.9-1-2.4-1.2-3.6-1.2c-2.2,0-4.8,0.8-5.1,3.3l1.7,0.3
						c0.3-1.6,1.7-2.1,3.2-2.1c2.1,0,3,0.8,3,2.9v0.5C164.3,15.6,162.8,15.6,162.8,15.6z"/>
					<path class="st0" d="M171,11v2.2h0c0.6-1.3,2-2.5,3.6-2.5c1.7,0,3.1,1.3,3.4,2.7c0.6-1.5,2.1-2.7,3.9-2.7c1.2,0,2.4,0.7,3,1.7
						c0.6,1,0.5,2.3,0.5,3.5v7.2h-1.8v-7.2c0-0.8,0.1-1.7-0.3-2.4c-0.4-0.8-1.2-1.3-2-1.3c-0.9,0-1.8,0.6-2.3,1.4
						c-0.7,1-0.7,1.9-0.7,3v6.5h-1.9v-7.6c0-0.7-0.1-1.5-0.4-2c-0.4-0.7-1.2-1.2-2-1.2s-1.7,0.5-2.2,1.2c-0.6,0.8-0.7,1.8-0.7,2.8
						v6.9h-1.8V11H171z"/>
					<path class="st0" d="M190.9,23.1H189V11h1.8V23.1z M190.9,8.8h-2V6.7h2V8.8z"/>
					<path class="st0" d="M194.7,23.1V6.7h1.8v16.3H194.7z"/>
					<path class="st0" d="M85.3,23.1V6.7h1.8v16.3H85.3z"/>
					<path class="st0" d="M90.8,23.1V6.7h1.8v16.3H90.8z"/>
					<path class="st0" d="M205.8,23.2l-1.8,0.2c-2.6,0-3.5-1.5-3.5-3.9v-7h-2.1v-1.5h2.1v-3l1.9-0.2v3.2h2.7v1.5h-2.7v7.3
						c0,1.4,0.4,2.2,1.9,2.2l1.4-0.1V23.2z"/>
					<path class="st0" d="M208.8,16.9c0-1,0.2-2.2,0.6-3c0.5-1.1,1.6-1.7,2.8-1.7c1.1,0,2.1,0.5,2.6,1.5c0.6,1,0.8,2.2,0.8,3.4
						c0,1.1-0.1,2.2-0.6,3.1c-0.6,1.1-1.5,1.7-2.8,1.7c-1.1,0-2.1-0.6-2.7-1.5C209,19.3,208.8,18,208.8,16.9z M206.8,16.9
						c0,3.2,1.6,6.4,5.2,6.4c3.6,0,5.6-3,5.6-6.4c0-3.2-1.8-6.3-5.3-6.3C208.7,10.7,206.8,13.6,206.8,16.9z"/>
				</g>
			</g>
		</g>
	</g>
</g>
</svg>
