<?xml version="1.0" encoding="utf-8"?>
<!-- Generator: Adobe Illustrator 20.0.0, SVG Export Plug-In . SVG Version: 6.00 Build 0)  -->
<svg version="1.1" id="Layer_1" xmlns="http://www.w3.org/2000/svg" xmlns:xlink="http://www.w3.org/1999/xlink" x="0px" y="0px"
	 viewBox="0 0 126 32.4" style="enable-background:new 0 0 126 32.4;" xml:space="preserve">
<style type="text/css">
	.st0{fill:#414042;}
	.st1{font-family:'ITCFranklinGothicStd-Book';}
	.st2{font-size:16px;}
	.st3{letter-spacing:2;}
	.st4{fill:#939598;}
	.st5{fill:#262626;}
</style>
<text id="XMLID_1102_" transform="matrix(1 0 0 1 45.3439 21.6346)" class="st0 st1 st2 st3">SAILFISH</text>
<path id="XMLID_1113_" class="st4" d="M38.9,32.4c-0.3,0-0.5-0.2-0.5-0.5V0.5c0-0.3,0.2-0.5,0.5-0.5c0.3,0,0.5,0.2,0.5,0.5v31.4
	C39.4,32.2,39.2,32.4,38.9,32.4z"/>
<g>
	<rect x="17.2" y="17.6" class="st5" width="4.8" height="4.8"/>
	<rect x="9.5" y="17.6" class="st5" width="4.8" height="4.8"/>
	<rect x="17.2" y="10.1" class="st5" width="4.8" height="4.8"/>
	<rect x="9.5" y="10.1" class="st5" width="4.8" height="4.8"/>
	<path class="st5" d="M28.6,25.2c1.8-2.5,2.8-5.6,2.8-9c0-8.7-7.1-15.7-15.7-15.7S0,7.6,0,16.2C0,24.9,7.1,32,15.7,32
		c3.3,0,6.4-1,8.9-2.8l6.8,2.8L28.6,25.2z M1.6,16.2c0-7.8,6.4-14.2,14.2-14.2s14.2,6.4,14.2,14.2c0,7.8-6.4,14.2-14.2,14.2
		S1.6,24,1.6,16.2z"/>
</g>
</svg>
